<svg xmlns="http://www.w3.org/2000/svg" xmlns:xlink="http://www.w3.org/1999/xlink" version="1.1" x="0px" y="0px" viewBox="0 0 100 100" style="enable-background:new 0 0 100 100;max-width:100%" xml:space="preserve" height="100%"><g style="" fill="currentColor"><path d="M44,54.9h16c3.3,0,6-2.7,6-6v-2c0-5.4-3.1-10.1-7.5-12.4c2.2-1.8,3.5-4.6,3.5-7.6c0-5.5-4.5-10-10-10s-10,4.5-10,10   c0,3,1.4,5.8,3.5,7.6c-4.5,2.3-7.5,7-7.5,12.4v2C38,52.2,40.7,54.9,44,54.9z M52,20.9c3.3,0,6,2.7,6,6s-2.7,6-6,6s-6-2.7-6-6   S48.7,20.9,52,20.9z M42,46.9c0-5.5,4.5-10,10-10s10,4.5,10,10v2c0,1.1-0.9,2-2,2H44c-1.1,0-2-0.9-2-2V46.9z" style="" fill="currentColor"></path><path d="M94.3,57.9l-0.2-0.2C91,55,86.9,54.1,83.2,55C85,50.8,86,46.2,86,41.4c0-19-15.2-34.5-34-34.5S18,22.4,18,41.4   c0,6.1,1.6,11.8,4.3,16.8c-0.1,0-0.2,0-0.3,0l-12,2c-1.6,0.3-3,1.1-3.9,2.4c-0.9,1.3-1.3,2.9-1,4.5l3.4,20.7   c0.5,3.3,3.6,5.5,6.9,4.9l15-2.5c0.3,0,0.5,0,0.8,0l11.1,2.6c0.4,0.1,0.9,0.2,1.4,0.2c0.3,0,0.6,0,1-0.1l22.8-3.8   c1.4-0.2,2.6-0.9,3.5-2l23.5-26.6C95.2,59.9,95.1,58.6,94.3,57.9z M22,41.4c0-16.8,13.5-30.5,30-30.5s30,13.7,30,30.5   c0,7.9-3,15.1-7.8,20.5l-1,1.1c-1.3,1.3-2.7,2.5-4.1,3.5c-2.4-4.2-7.3-6.7-12.3-5.8l-15.7,2.6c-0.4,0.1-0.7,0-1.1-0.1l-9.5-3.9   c-1.1-0.5-2.3-0.8-3.5-1C23.8,53.4,22,47.6,22,41.4z M67.9,84.7c-0.3,0.4-0.7,0.6-1.2,0.7L44,89.1c-0.3,0-0.5,0-0.8,0l-11.1-2.6   c-0.5-0.1-0.9-0.2-1.4-0.2c-0.3,0-0.6,0-1,0.1l-15,2.5c-1.1,0.2-2.1-0.6-2.3-1.7L9,66.5c-0.1-0.5,0-1.1,0.4-1.5   c0.3-0.4,0.8-0.7,1.3-0.8l12-2c2.1-0.3,4.3-0.1,6.3,0.7l9.5,3.9c1,0.4,2.2,0.5,3.2,0.4l15.7-2.6c3.7-0.6,7.2,1.4,8.6,4.7l-14.6,2.4   c-1.1,0.2-1.8,1.2-1.6,2.3c0.2,1.1,1.2,1.8,2.3,1.7l16.8-2.8c0.2,0,0.4-0.1,0.6-0.2v0c0.2-0.1,0.4-0.3,0.6-0.5l10.3-11   c2.6-2.8,6.6-3.3,9.7-1.5L67.9,84.7z" style="" fill="currentColor"></path></g></svg>