<svg width="30" height="30" viewBox="0 0 30 30" fill="none" xmlns="http://www.w3.org/2000/svg">
<path d="M4.6875 0H25.3125C27.9013 0 30 2.09867 30 4.6875V25.3125C30 27.9013 27.9013 30 25.3125 30H4.6875C2.09867 30 0 27.9013 0 25.3125V4.6875C0 2.09867 2.09867 0 4.6875 0ZM12.7859 23.4375H15.8562V15.0041H18.1595L18.6151 12.369H15.8562V10.4595C15.8562 9.84394 16.2543 9.19762 16.8231 9.19762H18.3911V6.5625H16.4695V6.57431C13.4628 6.68344 12.8451 8.42475 12.7915 10.2538H12.7859V12.369H11.25V15.0041H12.7859V23.4375Z" fill="#C00407"/>
<path d="M4.6875 0.9375C2.61643 0.9375 0.9375 2.61643 0.9375 4.6875V25.3125C0.9375 27.3836 2.61643 29.0625 4.6875 29.0625H25.3125C27.3836 29.0625 29.0625 27.3836 29.0625 25.3125V4.6875C29.0625 2.61643 27.3836 0.9375 25.3125 0.9375H4.6875ZM4.6875 0H25.3125C27.9013 0 30 2.09867 30 4.6875V25.3125C30 27.9013 27.9013 30 25.3125 30H4.6875C2.09867 30 0 27.9013 0 25.3125V4.6875C0 2.09867 2.09867 0 4.6875 0Z" fill="#C00407"/>
<path d="M12.7859 23.4375H15.8562V15.0041H18.1596L18.6151 12.369H15.8562V10.4595C15.8562 9.84394 16.2543 9.19762 16.8232 9.19762H18.391V6.5625H16.4694V6.57431C13.4629 6.68344 12.8451 8.42475 12.7915 10.2538H12.7859V12.369H11.25V15.0041H12.7859V23.4375Z" fill="white"/>
</svg>
