<svg width="64" height="64" viewBox="0 0 64 64" fill="none" xmlns="http://www.w3.org/2000/svg">
<g clip-path="url(#clip0)">
<path d="M57 6H15C13.6744 6.00159 12.4036 6.52888 11.4662 7.46622C10.5289 8.40356 10.0016 9.6744 10 11V50H3C2.73478 50 2.48043 50.1054 2.29289 50.2929C2.10536 50.4804 2 50.7348 2 51V53C2.00159 54.3256 2.52888 55.5964 3.46622 56.5338C4.40356 57.4711 5.6744 57.9984 7 58H38.024V63C38.024 63.1857 38.0757 63.3678 38.1733 63.5257C38.271 63.6837 38.4107 63.8114 38.5768 63.8944C38.7429 63.9775 38.9288 64.0126 39.1138 63.996C39.2988 63.9793 39.4754 63.9114 39.624 63.8L43.024 61.25L46.424 63.8C46.5968 63.9303 46.8075 64.0006 47.024 64C47.179 64.0014 47.3323 63.9672 47.472 63.9C47.6388 63.8164 47.7789 63.6878 47.8765 63.5288C47.974 63.3697 48.0251 63.1866 48.024 63V58H49C50.3256 57.9984 51.5964 57.4711 52.5338 56.5338C53.4711 55.5964 53.9984 54.3256 54 53V14H61C61.2652 14 61.5196 13.8946 61.7071 13.7071C61.8946 13.5196 62 13.2652 62 13V11C61.9984 9.6744 61.4711 8.40356 60.5338 7.46622C59.5964 6.52888 58.3256 6.00159 57 6V6ZM38.024 56H7C6.20435 56 5.44129 55.6839 4.87868 55.1213C4.31607 54.5587 4 53.7956 4 53V52H38.024V56ZM46.024 61L43.624 59.2C43.4509 59.0702 43.2404 59 43.024 59C42.8076 59 42.5971 59.0702 42.424 59.2L40.024 61V49.831C40.2172 49.8463 40.4115 49.8426 40.604 49.82C40.8888 50.1873 41.2538 50.4846 41.6712 50.6891C42.0886 50.8937 42.5472 51 43.012 51C43.4768 51 43.9354 50.8937 44.3528 50.6891C44.7702 50.4846 45.1352 50.1873 45.42 49.82C45.6191 49.8439 45.8201 49.8475 46.02 49.831L46.024 61ZM47.31 44.98C47.1781 45.0269 47.0575 45.1009 46.9561 45.1973C46.8546 45.2938 46.7745 45.4104 46.721 45.5397C46.6675 45.6691 46.6417 45.8082 46.6453 45.9481C46.6489 46.088 46.6818 46.2256 46.742 46.352C46.8344 46.5454 46.8648 46.7627 46.8288 46.9741C46.7929 47.1854 46.6925 47.3805 46.5413 47.5325C46.3902 47.6845 46.1957 47.7861 45.9846 47.8232C45.7734 47.8604 45.556 47.8313 45.362 47.74C45.2356 47.6797 45.0979 47.6466 44.9578 47.6429C44.8178 47.6392 44.6786 47.6649 44.5491 47.7185C44.4197 47.772 44.3029 47.8522 44.2064 47.9537C44.1099 48.0553 44.0359 48.176 43.989 48.308C43.9177 48.5102 43.7854 48.6852 43.6104 48.809C43.4355 48.9329 43.2264 48.9994 43.012 48.9994C42.7976 48.9994 42.5885 48.9329 42.4136 48.809C42.2386 48.6852 42.1063 48.5102 42.035 48.308C41.9881 48.176 41.9141 48.0553 41.8176 47.9537C41.7211 47.8522 41.6043 47.772 41.4749 47.7185C41.3454 47.6649 41.2062 47.6392 41.0662 47.6429C40.9261 47.6466 40.7884 47.6797 40.662 47.74C40.468 47.8313 40.2506 47.8604 40.0394 47.8232C39.8283 47.7861 39.6338 47.6845 39.4827 47.5325C39.3315 47.3805 39.2311 47.1854 39.1952 46.9741C39.1592 46.7627 39.1896 46.5454 39.282 46.352C39.3422 46.2257 39.3752 46.0881 39.3789 45.9483C39.3825 45.8084 39.3568 45.6693 39.3034 45.54C39.25 45.4107 39.17 45.294 39.0686 45.1976C38.9673 45.1011 38.8468 45.027 38.715 44.98C38.5126 44.9081 38.3374 44.7753 38.2135 44.5998C38.0896 44.4243 38.0231 44.2148 38.0231 44C38.0231 43.7852 38.0896 43.5757 38.2135 43.4002C38.3374 43.2247 38.5126 43.0919 38.715 43.02C38.8467 42.973 38.967 42.8989 39.0683 42.8025C39.1695 42.7061 39.2495 42.5896 39.3029 42.4604C39.3563 42.3312 39.3821 42.1922 39.3785 42.0525C39.3749 41.9127 39.342 41.7753 39.282 41.649C39.1892 41.4555 39.1586 41.2381 39.1944 41.0265C39.2302 40.815 39.3306 40.6197 39.4818 40.4675C39.633 40.3153 39.8277 40.2136 40.039 40.1764C40.2503 40.1393 40.4679 40.1685 40.662 40.26C40.7884 40.3203 40.9261 40.3534 41.0662 40.3571C41.2062 40.3608 41.3454 40.3351 41.4749 40.2815C41.6043 40.228 41.7211 40.1478 41.8176 40.0463C41.9141 39.9447 41.9881 39.824 42.035 39.692C42.1063 39.4898 42.2386 39.3148 42.4136 39.191C42.5885 39.0671 42.7976 39.0006 43.012 39.0006C43.2264 39.0006 43.4355 39.0671 43.6104 39.191C43.7854 39.3148 43.9177 39.4898 43.989 39.692C44.0359 39.824 44.1099 39.9447 44.2064 40.0463C44.3029 40.1478 44.4197 40.228 44.5491 40.2815C44.6786 40.3351 44.8178 40.3608 44.9578 40.3571C45.0979 40.3534 45.2356 40.3203 45.362 40.26C45.556 40.1687 45.7734 40.1396 45.9846 40.1768C46.1957 40.2139 46.3902 40.3155 46.5413 40.4675C46.6925 40.6195 46.7929 40.8146 46.8288 41.0259C46.8648 41.2373 46.8344 41.4546 46.742 41.648C46.6818 41.7744 46.6489 41.912 46.6453 42.0519C46.6417 42.1918 46.6675 42.3309 46.721 42.4603C46.7745 42.5896 46.8546 42.7062 46.9561 42.8027C47.0575 42.8991 47.1781 42.9731 47.31 43.02C47.512 43.0924 47.6866 43.2253 47.8101 43.4008C47.9336 43.5762 47.9999 43.7855 47.9999 44C47.9999 44.2145 47.9336 44.4238 47.8101 44.5992C47.6866 44.7747 47.512 44.9076 47.31 44.98ZM52.923 8.125C52.866 8.205 52.816 8.29 52.764 8.374C52.6575 8.54473 52.5613 8.72172 52.476 8.904C52.431 9.004 52.389 9.096 52.35 9.194C52.2757 9.38998 52.2136 9.59036 52.164 9.794C52.141 9.887 52.112 9.977 52.094 10.072C52.0337 10.3777 52.0022 10.6884 52 11V53C52 53.7956 51.6839 54.5587 51.1213 55.1213C50.5587 55.6839 49.7956 56 49 56C48.6667 55.9938 48.3367 55.9316 48.024 55.816V48.86C48.331 48.5367 48.5621 48.1491 48.7005 47.7253C48.8389 47.3015 48.8811 46.8522 48.824 46.41C49.1909 46.1245 49.4877 45.7589 49.6918 45.3413C49.896 44.9236 50.0021 44.4649 50.0021 44C50.0021 43.5351 49.896 43.0764 49.6918 42.6587C49.4877 42.2411 49.1909 41.8755 48.824 41.59C48.8823 41.1292 48.8346 40.6611 48.6846 40.2215C48.5345 39.7819 48.286 39.3824 47.958 39.0535C47.63 38.7245 47.2312 38.4748 46.7921 38.3235C46.3529 38.1721 45.885 38.123 45.424 38.18C45.1392 37.8127 44.7742 37.5154 44.3568 37.3109C43.9394 37.1063 43.4808 37 43.016 37C42.5512 37 42.0926 37.1063 41.6752 37.3109C41.2578 37.5154 40.8928 37.8127 40.608 38.18C40.147 38.1232 39.6792 38.1724 39.2401 38.3239C38.8011 38.4753 38.4024 38.725 38.0745 39.0539C37.7465 39.3828 37.498 39.7822 37.3479 40.2217C37.1977 40.6612 37.1499 41.1292 37.208 41.59C36.8411 41.8755 36.5443 42.2411 36.3402 42.6587C36.136 43.0764 36.0299 43.5351 36.0299 44C36.0299 44.4649 36.136 44.9236 36.3402 45.3413C36.5443 45.7589 36.8411 46.1245 37.208 46.41C37.1497 46.8584 37.1933 47.3142 37.3356 47.7435C37.4779 48.1727 37.7153 48.5643 38.03 48.889V50H12V11C12 10.2044 12.3161 9.44129 12.8787 8.87868C13.4413 8.31607 14.2044 8 15 8H53C52.972 8.039 52.951 8.084 52.923 8.125ZM60 12H54V11C54 10.2044 54.3161 9.44129 54.8787 8.87868C55.4413 8.31607 56.2044 8 57 8C57.7956 8 58.5587 8.31607 59.1213 8.87868C59.6839 9.44129 60 10.2044 60 11V12Z" fill="#C00407"/>
<path d="M39 14H35V16H39V14Z" fill="#C00407"/>
<path d="M33 14H25V16H33V14Z" fill="#C00407"/>
<path d="M42 19H22V21H42V19Z" fill="#C00407"/>
<path d="M22 25H17V27H22V25Z" fill="#C00407"/>
<path d="M28 30H17V32H28V30Z" fill="#C00407"/>
<path d="M47 25H24V27H47V25Z" fill="#C00407"/>
<path d="M47 30H30V32H47V30Z" fill="#C00407"/>
<path d="M37 35H17V37H37V35Z" fill="#C00407"/>
<path d="M34 40H17V42H34V40Z" fill="#C00407"/>
</g>
<defs>
<clipPath id="clip0">
<rect width="64" height="64" fill="white"/>
</clipPath>
</defs>
</svg>
