<svg width="30" height="30" viewBox="0 0 30 30" fill="none" xmlns="http://www.w3.org/2000/svg">
<path d="M4.6875 0H25.3125C27.9013 0 30 2.09867 30 4.6875V25.3125C30 27.9013 27.9013 30 25.3125 30H4.6875C2.09867 30 0 27.9013 0 25.3125V4.6875C0 2.09867 2.09867 0 4.6875 0ZM11.9105 7.5C9.48952 7.5 7.5 9.48686 7.5 11.9105V18.0895C7.5 20.5105 9.48686 22.5 11.9105 22.5H18.0895C20.5105 22.5 22.5 20.5131 22.5 18.0895V11.9105C22.5 9.48952 20.5131 7.5 18.0895 7.5H11.9105ZM11.9105 8.86364H18.0895C19.7754 8.86364 21.1364 10.2246 21.1364 11.9105V18.0895C21.1364 19.7754 19.7754 21.1364 18.0895 21.1364H11.9105C10.2246 21.1364 8.86364 19.7754 8.86364 18.0895V11.9105C8.86364 10.2246 10.2246 8.86364 11.9105 8.86364ZM19.027 10.3551C18.6834 10.3551 18.4091 10.6294 18.4091 10.973C18.4091 11.3166 18.6834 11.5909 19.027 11.5909C19.3706 11.5909 19.6449 11.3166 19.6449 10.973C19.6449 10.6294 19.3706 10.3551 19.027 10.3551ZM15 10.9091C12.7495 10.9091 10.9091 12.7495 10.9091 15C10.9091 17.2505 12.7495 19.0909 15 19.0909C17.2505 19.0909 19.0909 17.2505 19.0909 15C19.0909 12.7495 17.2505 10.9091 15 10.9091ZM15 12.2727C16.5154 12.2727 17.7273 13.4846 17.7273 15C17.7273 16.5154 16.5154 17.7273 15 17.7273C13.4846 17.7273 12.2727 16.5154 12.2727 15C12.2727 13.4846 13.4846 12.2727 15 12.2727Z" fill="#C00407"/>
<path d="M4.6875 0.9375C2.61643 0.9375 0.9375 2.61643 0.9375 4.6875V25.3125C0.9375 27.3836 2.61643 29.0625 4.6875 29.0625H25.3125C27.3836 29.0625 29.0625 27.3836 29.0625 25.3125V4.6875C29.0625 2.61643 27.3836 0.9375 25.3125 0.9375H4.6875ZM4.6875 0H25.3125C27.9013 0 30 2.09867 30 4.6875V25.3125C30 27.9013 27.9013 30 25.3125 30H4.6875C2.09867 30 0 27.9013 0 25.3125V4.6875C0 2.09867 2.09867 0 4.6875 0Z" fill="#C00407"/>
<path d="M11.9105 7.5C9.48952 7.5 7.5 9.48686 7.5 11.9105V18.0895C7.5 20.5105 9.48686 22.5 11.9105 22.5H18.0895C20.5105 22.5 22.5 20.5131 22.5 18.0895V11.9105C22.5 9.48952 20.5131 7.5 18.0895 7.5H11.9105ZM11.9105 8.86364H18.0895C19.7754 8.86364 21.1364 10.2246 21.1364 11.9105V18.0895C21.1364 19.7754 19.7754 21.1364 18.0895 21.1364H11.9105C10.2246 21.1364 8.86364 19.7754 8.86364 18.0895V11.9105C8.86364 10.2246 10.2246 8.86364 11.9105 8.86364ZM19.027 10.3551C18.6834 10.3551 18.4091 10.6294 18.4091 10.973C18.4091 11.3166 18.6834 11.5909 19.027 11.5909C19.3706 11.5909 19.6449 11.3166 19.6449 10.973C19.6449 10.6294 19.3706 10.3551 19.027 10.3551ZM15 10.9091C12.7495 10.9091 10.9091 12.7495 10.9091 15C10.9091 17.2505 12.7495 19.0909 15 19.0909C17.2505 19.0909 19.0909 17.2505 19.0909 15C19.0909 12.7495 17.2505 10.9091 15 10.9091ZM15 12.2727C16.5154 12.2727 17.7273 13.4846 17.7273 15C17.7273 16.5154 16.5154 17.7273 15 17.7273C13.4846 17.7273 12.2727 16.5154 12.2727 15C12.2727 13.4846 13.4846 12.2727 15 12.2727Z" fill="white"/>
<path d="M11.9105 7.5C9.48952 7.5 7.5 9.48686 7.5 11.9105V18.0895C7.5 20.5105 9.48686 22.5 11.9105 22.5H18.0895C20.5105 22.5 22.5 20.5131 22.5 18.0895V11.9105C22.5 9.48952 20.5131 7.5 18.0895 7.5H11.9105ZM11.9105 8.86364H18.0895C19.7754 8.86364 21.1364 10.2246 21.1364 11.9105V18.0895C21.1364 19.7754 19.7754 21.1364 18.0895 21.1364H11.9105C10.2246 21.1364 8.86364 19.7754 8.86364 18.0895V11.9105C8.86364 10.2246 10.2246 8.86364 11.9105 8.86364ZM19.027 10.3551C18.6834 10.3551 18.4091 10.6294 18.4091 10.973C18.4091 11.3166 18.6834 11.5909 19.027 11.5909C19.3706 11.5909 19.6449 11.3166 19.6449 10.973C19.6449 10.6294 19.3706 10.3551 19.027 10.3551ZM15 10.9091C12.7495 10.9091 10.9091 12.7495 10.9091 15C10.9091 17.2505 12.7495 19.0909 15 19.0909C17.2505 19.0909 19.0909 17.2505 19.0909 15C19.0909 12.7495 17.2505 10.9091 15 10.9091ZM15 12.2727C16.5154 12.2727 17.7273 13.4846 17.7273 15C17.7273 16.5154 16.5154 17.7273 15 17.7273C13.4846 17.7273 12.2727 16.5154 12.2727 15C12.2727 13.4846 13.4846 12.2727 15 12.2727Z" fill="white"/>
</svg>
