<svg width="32" height="32" viewBox="0 0 32 32" fill="none" xmlns="http://www.w3.org/2000/svg">
<path d="M5 0H27C29.7614 0 32 2.23858 32 5V27C32 29.7614 29.7614 32 27 32H5C2.23858 32 0 29.7614 0 27V5C0 2.23858 2.23858 0 5 0ZM12.7045 8C10.1222 8 8 10.1193 8 12.7045V19.2955C8 21.8778 10.1193 24 12.7045 24H19.2955C21.8778 24 24 21.8807 24 19.2955V12.7045C24 10.1222 21.8807 8 19.2955 8H12.7045ZM12.7045 9.45455H19.2955C21.0937 9.45455 22.5455 10.9062 22.5455 12.7045V19.2955C22.5455 21.0937 21.0937 22.5455 19.2955 22.5455H12.7045C10.9062 22.5455 9.45455 21.0937 9.45455 19.2955V12.7045C9.45455 10.9062 10.9062 9.45455 12.7045 9.45455ZM20.2955 11.0455C19.929 11.0455 19.6364 11.3381 19.6364 11.7045C19.6364 12.071 19.929 12.3636 20.2955 12.3636C20.6619 12.3636 20.9545 12.071 20.9545 11.7045C20.9545 11.3381 20.6619 11.0455 20.2955 11.0455ZM16 11.6364C13.5994 11.6364 11.6364 13.5994 11.6364 16C11.6364 18.4006 13.5994 20.3636 16 20.3636C18.4006 20.3636 20.3636 18.4006 20.3636 16C20.3636 13.5994 18.4006 11.6364 16 11.6364ZM16 13.0909C17.6165 13.0909 18.9091 14.3835 18.9091 16C18.9091 17.6165 17.6165 18.9091 16 18.9091C14.3835 18.9091 13.0909 17.6165 13.0909 16C13.0909 14.3835 14.3835 13.0909 16 13.0909Z" fill="#C00407"/>
<path d="M5 1C2.79086 1 1 2.79086 1 5V27C1 29.2091 2.79086 31 5 31H27C29.2091 31 31 29.2091 31 27V5C31 2.79086 29.2091 1 27 1H5ZM5 0H27C29.7614 0 32 2.23858 32 5V27C32 29.7614 29.7614 32 27 32H5C2.23858 32 0 29.7614 0 27V5C0 2.23858 2.23858 0 5 0Z" fill="#C00407"/>
<path d="M12.7045 8C10.1222 8 8 10.1193 8 12.7045V19.2955C8 21.8778 10.1193 24 12.7045 24H19.2955C21.8778 24 24 21.8807 24 19.2955V12.7045C24 10.1222 21.8807 8 19.2955 8H12.7045ZM12.7045 9.45455H19.2955C21.0937 9.45455 22.5455 10.9062 22.5455 12.7045V19.2955C22.5455 21.0937 21.0937 22.5455 19.2955 22.5455H12.7045C10.9062 22.5455 9.45455 21.0937 9.45455 19.2955V12.7045C9.45455 10.9062 10.9062 9.45455 12.7045 9.45455ZM20.2955 11.0455C19.929 11.0455 19.6364 11.3381 19.6364 11.7045C19.6364 12.071 19.929 12.3636 20.2955 12.3636C20.6619 12.3636 20.9545 12.071 20.9545 11.7045C20.9545 11.3381 20.6619 11.0455 20.2955 11.0455ZM16 11.6364C13.5994 11.6364 11.6364 13.5994 11.6364 16C11.6364 18.4006 13.5994 20.3636 16 20.3636C18.4006 20.3636 20.3636 18.4006 20.3636 16C20.3636 13.5994 18.4006 11.6364 16 11.6364ZM16 13.0909C17.6165 13.0909 18.9091 14.3835 18.9091 16C18.9091 17.6165 17.6165 18.9091 16 18.9091C14.3835 18.9091 13.0909 17.6165 13.0909 16C13.0909 14.3835 14.3835 13.0909 16 13.0909Z" fill="white"/>
<path d="M12.7045 8C10.1222 8 8 10.1193 8 12.7045V19.2955C8 21.8778 10.1193 24 12.7045 24H19.2955C21.8778 24 24 21.8807 24 19.2955V12.7045C24 10.1222 21.8807 8 19.2955 8H12.7045ZM12.7045 9.45455H19.2955C21.0937 9.45455 22.5455 10.9062 22.5455 12.7045V19.2955C22.5455 21.0937 21.0937 22.5455 19.2955 22.5455H12.7045C10.9062 22.5455 9.45455 21.0937 9.45455 19.2955V12.7045C9.45455 10.9062 10.9062 9.45455 12.7045 9.45455ZM20.2955 11.0455C19.929 11.0455 19.6364 11.3381 19.6364 11.7045C19.6364 12.071 19.929 12.3636 20.2955 12.3636C20.6619 12.3636 20.9545 12.071 20.9545 11.7045C20.9545 11.3381 20.6619 11.0455 20.2955 11.0455ZM16 11.6364C13.5994 11.6364 11.6364 13.5994 11.6364 16C11.6364 18.4006 13.5994 20.3636 16 20.3636C18.4006 20.3636 20.3636 18.4006 20.3636 16C20.3636 13.5994 18.4006 11.6364 16 11.6364ZM16 13.0909C17.6165 13.0909 18.9091 14.3835 18.9091 16C18.9091 17.6165 17.6165 18.9091 16 18.9091C14.3835 18.9091 13.0909 17.6165 13.0909 16C13.0909 14.3835 14.3835 13.0909 16 13.0909Z" fill="white"/>
</svg>
