<svg width="62" height="62" viewBox="0 0 62 62" fill="none" xmlns="http://www.w3.org/2000/svg">
<path d="M31.9563 0.832031C31.9583 0.841031 31.9633 0.859031 31.9743 0.866031L31.8003 0.870031L31.9563 0.832031Z" fill="#C00407"/>
<path d="M58.0422 2.5028C57.2732 1.7238 56.2412 1.2958 55.1512 1.2858L6.73422 1.0918C4.46622 1.0918 2.62622 2.9318 2.62622 5.1798L2.57422 19.8918C2.68322 19.8948 2.79122 19.9088 2.90022 19.9218C3.27422 18.5748 4.01622 17.3898 5.03122 16.5098L5.07022 5.1898C5.07022 4.2748 5.81922 3.5348 6.72522 3.5348V3.4178L6.73522 3.5348L55.1422 3.7388C55.5802 3.7388 55.9992 3.9138 56.3102 4.2258C56.6122 4.5368 56.7872 4.9458 56.7772 5.3838L56.7192 23.3818L58.5202 23.7128C58.7342 23.7518 58.9482 23.8008 59.1622 23.8588L59.2302 5.4038C59.2402 4.3138 58.8112 3.2818 58.0422 2.5028Z" fill="#C00407"/>
<path d="M16.3962 8.35109L16.4462 8.01109C16.4832 7.72409 16.2792 7.45109 15.9892 7.41309C15.6492 7.41409 15.4172 7.60509 15.3812 7.86909L15.3442 8.19009C14.9782 10.8611 13.4302 12.2971 10.6122 12.5941L9.7892 12.6781L9.7832 14.0981C10.1442 14.1051 10.5052 14.1371 10.8612 14.1951V13.6641L11.4222 13.5631C14.3322 13.0381 16.0062 11.2851 16.3962 8.35109Z" fill="#C00407"/>
<path d="M50.9253 21.6102L51.9943 21.8112L51.9613 12.6772L51.1493 12.5932C48.3193 12.2962 46.7713 10.8622 46.4163 8.20923L46.3753 7.86823C46.3423 7.60923 46.1113 7.40723 45.8393 7.40723C45.4793 7.45023 45.2743 7.72423 45.3133 8.02123L45.3533 8.36023C45.7503 11.2842 47.4283 13.0382 50.3363 13.5612L50.8953 13.6622L50.9253 21.6102Z" fill="#C00407"/>
<path d="M28.6992 12.4921C27.7622 12.9631 27.1032 13.8361 26.8902 14.8891C26.6852 15.9061 26.9312 16.9601 27.5512 17.7271L33.2842 18.7911C32.9612 18.6241 32.6272 18.4731 32.3002 18.3251C32.0752 18.2231 31.8492 18.1211 31.6262 18.0141C31.4412 17.9201 31.2562 17.8341 31.0712 17.7481C30.6692 17.5611 30.2532 17.3671 29.8722 17.1111C29.1672 16.6621 28.9122 15.7151 29.2432 14.7561C29.4872 13.9911 30.0412 13.6211 30.9862 13.5991L31.0532 13.5981C31.9882 13.5981 32.6502 14.0561 32.9172 14.8871C32.9962 15.1251 33.0362 15.3671 33.0752 15.5991C33.0812 15.6361 33.0872 15.6731 33.0942 15.7101H35.3102C35.3292 15.0661 35.1472 14.3251 34.8332 13.8011C34.2652 12.8201 33.3292 12.2451 31.8842 11.9881L31.6832 11.9521V9.99609H30.6702V11.8131L30.5072 11.8711C30.2642 11.9571 30.0252 12.0271 29.7932 12.0951C29.3992 12.2131 29.0272 12.3231 28.6992 12.4921Z" fill="#C00407"/>
<path d="M34.6162 19.8438C34.6172 19.8537 34.6182 19.8728 34.6282 19.8818L34.4502 19.8538L34.6162 19.8438Z" fill="#C00407"/>
<path d="M60.6232 28.2913C60.0012 27.3863 59.0652 26.7793 57.9862 26.5823L10.3852 17.7643C10.1412 17.7203 9.8922 17.6973 9.6452 17.6973C7.6602 17.6973 5.9622 19.1113 5.6072 21.0593L0.727203 47.5133C0.531203 48.5913 0.765203 49.6823 1.3852 50.5853C2.0062 51.4893 2.9382 52.0943 4.0102 52.2883L51.6412 61.1013C51.8842 61.1463 52.1322 61.1683 52.3782 61.1683C53.2042 61.1683 54.0052 60.9163 54.6942 60.4403C55.5902 59.8193 56.1922 58.8873 56.3892 57.8133L61.2702 31.3573C61.4722 30.2833 61.2432 29.1943 60.6232 28.2913ZM58.8632 30.9063L53.9792 57.3703C53.9002 57.8023 53.6592 58.1773 53.2982 58.4283C52.9442 58.6733 52.5162 58.7693 52.0852 58.6933L4.4522 49.8813C3.5622 49.7193 2.9712 48.8543 3.1352 47.9543L8.0162 21.5003C8.1592 20.7153 8.8432 20.1453 9.6442 20.1453C9.7442 20.1453 9.8442 20.1543 9.9422 20.1723L57.5432 28.9903C57.9772 29.0693 58.3542 29.3133 58.6042 29.6763C58.8522 30.0373 58.9452 30.4733 58.8632 30.9063Z" fill="#C00407"/>
<path d="M18.7052 26.3071C18.7942 26.0261 18.6392 25.7241 18.3592 25.6341C18.0752 25.5401 17.7742 25.7041 17.6862 25.9801L17.5832 26.2961C16.7592 28.8501 15.0022 29.9861 12.1492 29.7701L11.3302 29.7081L9.13916 41.5671L9.91216 41.8081C12.4502 42.5991 13.9332 44.5921 13.7832 47.0091L13.7622 47.3441C13.7442 47.6391 13.9692 47.8941 14.2642 47.9121L14.2972 48.5941V47.9121C14.5782 47.9121 14.8132 47.6911 14.8312 47.4101L14.8522 47.0751C15.0162 44.4131 13.4942 42.0921 10.8802 41.0191L10.3682 40.8091L12.2052 30.8651H12.7732C15.7402 30.8651 17.6952 29.4381 18.6042 26.6231L18.7052 26.3071Z" fill="#C00407"/>
<path d="M52.0381 36.9904C49.3101 36.1954 48.0431 34.5094 48.1651 31.8344L48.1811 31.5004C48.1891 31.3574 48.1391 31.2214 48.0431 31.1154C47.9471 31.0094 47.8151 30.9474 47.6721 30.9404C47.6711 30.9404 47.6701 30.9404 47.6691 30.9404C47.3581 30.9404 47.1251 31.1684 47.1121 31.4494L47.0951 31.7864C46.9591 34.7434 48.2961 36.7674 51.0681 37.7984L51.6001 37.9964L49.8361 47.9544L49.2831 47.9714C46.4591 48.0594 44.2201 49.6994 43.4421 52.2514L43.3431 52.5714C43.2571 52.8534 43.4171 53.1534 43.6991 53.2394C43.9751 53.3264 44.2841 53.1574 44.3661 52.8844L44.4641 52.5634C45.1741 50.2364 47.1991 48.8904 49.9151 49.0494L50.7221 49.0924L52.8261 37.2204L52.0381 36.9904Z" fill="#C00407"/>
<path d="M30.5863 46.397C30.7133 46.394 30.8363 46.392 30.9543 46.391C31.2213 46.389 31.4723 46.386 31.7143 46.354C33.2713 46.152 34.2363 45.416 34.6653 44.103C35.1723 42.507 34.9023 41.268 33.8413 40.316C33.4243 39.936 32.9673 39.62 32.4843 39.285C32.2773 39.141 32.0703 38.998 31.8663 38.849C31.7123 38.734 31.5573 38.624 31.4023 38.514C31.0273 38.249 30.6403 37.975 30.2993 37.643C29.6883 37.084 29.6053 36.109 30.0973 35.222C30.4703 34.515 31.0773 34.245 32.0163 34.385C32.9783 34.545 33.5723 35.121 33.6933 36.005C33.7283 36.272 33.7233 36.527 33.7193 36.798V36.845L35.9033 37.242C36.0353 36.61 35.9873 35.847 35.7723 35.278C35.3853 34.214 34.5663 33.48 33.1933 32.965L33.0033 32.894L33.3523 30.975L32.3533 30.793L32.0273 32.585L31.8543 32.61C31.6153 32.646 31.3823 32.67 31.1553 32.695C30.7323 32.74 30.3333 32.782 29.9633 32.89C28.8143 33.227 27.9393 34.141 27.6223 35.335C27.3123 36.506 27.6103 37.707 28.4203 38.548C28.8413 38.982 29.3693 39.35 29.8803 39.706C30.1313 39.881 30.3823 40.056 30.6243 40.239C30.7703 40.347 30.9243 40.453 31.0783 40.559C31.4223 40.795 31.7773 41.04 32.0883 41.334C32.7133 41.927 32.8263 42.904 32.3693 43.767C31.9903 44.488 31.3013 44.812 30.3743 44.67C30.1573 44.645 29.9633 44.606 29.7733 44.546C28.7243 44.285 28.1093 43.426 28.1843 42.309C28.1923 42.223 28.1973 42.136 28.2013 42.048L26.0433 41.655C25.5733 43.632 26.5803 45.07 29.1933 46.167L29.3733 46.243L29.0613 47.957L30.0723 48.141L30.3893 46.4L30.5863 46.397Z" fill="#C00407"/>
</svg>
