<svg width="16" height="13" viewBox="0 0 16 13" fill="none" xmlns="http://www.w3.org/2000/svg">
<path d="M15.5445 0.288533C15.0796 0.586311 14.0123 1.01902 13.4859 1.01902V1.01991C12.8848 0.392 12.0386 0 11.1001 0C9.27733 0 7.79929 1.47804 7.79929 3.30009C7.79929 3.55324 7.82862 3.80018 7.88284 4.03698H7.88231C5.40978 3.97209 2.7056 2.7328 1.07769 0.611733C0.0768002 2.34418 0.942933 4.27093 2.07876 4.97298C1.68996 5.00231 0.974222 4.92818 0.637333 4.59947C0.614755 5.74933 1.16764 7.27289 3.18364 7.8256C2.79538 8.03449 2.10809 7.97458 1.80924 7.93013C1.91413 8.9008 3.27342 10.1698 4.75982 10.1698C4.23004 10.7826 2.2368 11.894 0 11.5404C1.51911 12.4647 3.2896 13 5.16356 13C10.4889 13 14.6245 8.68409 14.402 3.35982C14.4011 3.35396 14.4011 3.34809 14.4005 3.34169C14.4011 3.328 14.402 3.31431 14.402 3.30009C14.402 3.28356 14.4005 3.26791 14.4 3.25191C14.8848 2.92036 15.5353 2.33387 16 1.56196C15.7305 1.7104 14.922 2.00764 14.1696 2.08142C14.6524 1.8208 15.3678 0.967289 15.5445 0.288533Z" fill="#C00407"/>
</svg>
