<svg xmlns="http://www.w3.org/2000/svg" xmlns:xlink="http://www.w3.org/1999/xlink" version="1.1" x="0px" y="0px" viewBox="0 0 48 48" enable-background="new 0 0 48 48" xml:space="preserve" style="max-width:100%" height="100%"><g style="" fill="currentColor"><g style="" fill="currentColor"><path fill="currentColor" d="M10,38.1c-2.6,0-5.1-1.8-6.4-4.6c-0.8-1.7-1-3.6-0.6-5.3c0.4-1.8,1.5-3.2,3-3.8c0.7-0.3,1.4-0.5,2.2-0.5    c2.6,0,5.1,1.8,6.4,4.6c1.7,3.7,0.6,7.8-2.4,9.2C11.5,37.9,10.7,38.1,10,38.1z M8.1,25.8c-0.5,0-0.9,0.1-1.3,0.3    c-0.9,0.4-1.6,1.3-1.9,2.5c-0.3,1.3-0.1,2.7,0.5,4c1,2.1,2.8,3.4,4.6,3.4c0.5,0,0.9-0.1,1.3-0.3c2-0.9,2.7-3.9,1.4-6.5    C11.8,27.2,9.9,25.8,8.1,25.8z" style=""></path><path fill="currentColor" d="M12,37.4c-0.1,0-0.2,0-0.3,0c-0.5-0.1-0.9-0.7-0.7-1.2c0.3-1.1-0.2-2.4-1.1-3c-0.3-0.2-0.6-0.4-1-0.6    c-0.3-0.2-0.7-0.3-1-0.5c-2.3-1.5-3.3-4.6-2.4-7.1c0.2-0.5,0.8-0.8,1.3-0.6c0.5,0.2,0.8,0.8,0.6,1.3c-0.6,1.7,0.1,3.8,1.6,4.8    c0.3,0.2,0.5,0.3,0.8,0.4c0.4,0.2,0.9,0.4,1.3,0.8c1.5,1.2,2.3,3.3,1.8,5.2C12.8,37.1,12.4,37.4,12,37.4z" style=""></path></g><g style="" fill="currentColor"><g style="" fill="currentColor"><path fill="currentColor" d="M22.5,7.9c-0.3,0-0.5-0.1-0.7-0.3c-0.5-0.5-1.2-1.5-1.1-2.9c0-0.3,0.1-0.6,0.2-0.8L21,3.6     c0.3-1,0.3-1.1,0.2-2c-0.1-0.5,0.3-1.1,0.8-1.1c0.6-0.1,1.1,0.3,1.1,0.8c0.2,1.3,0.1,1.7-0.3,2.9l-0.1,0.3c0,0.2-0.1,0.3-0.1,0.5     c0,0.4,0.2,0.8,0.5,1.2c0.4,0.4,0.4,1,0,1.4C23,7.8,22.7,7.9,22.5,7.9z" style=""></path><path fill="currentColor" d="M26.4,7.9c-0.3,0-0.5-0.1-0.7-0.3c-0.5-0.5-1.2-1.5-1.1-2.8c0-0.3,0.1-0.6,0.2-0.8l0.1-0.3     c0.3-1,0.3-1.1,0.2-2C25,1.1,25.4,0.6,26,0.5c0.6-0.1,1.1,0.3,1.1,0.8c0.2,1.3,0.1,1.7-0.3,2.9l-0.1,0.3c0,0.2-0.1,0.3-0.1,0.5     c0,0.4,0.2,0.8,0.5,1.2c0.4,0.4,0.4,1,0,1.4C26.9,7.8,26.7,7.9,26.4,7.9z" style=""></path><path fill="currentColor" d="M30.3,7.9c-0.3,0-0.5-0.1-0.7-0.3c-0.5-0.5-1.2-1.5-1.1-2.8c0-0.3,0.1-0.6,0.2-0.8l0.1-0.3     c0.3-1,0.3-1.1,0.2-2c-0.1-0.5,0.3-1.1,0.8-1.1c0.6-0.1,1.1,0.3,1.1,0.8c0.2,1.3,0.1,1.7-0.3,2.9l-0.1,0.3c0,0.2-0.1,0.3-0.1,0.5     c0,0.4,0.2,0.8,0.5,1.2c0.4,0.4,0.4,1,0,1.4C30.8,7.8,30.6,7.9,30.3,7.9z" style=""></path></g><g style="" fill="currentColor"><path fill="currentColor" d="M33.9,38.9H18.8c-0.5,0-0.9-0.4-1-0.9l-2.9-27c0-0.3,0.1-0.6,0.3-0.8c0.2-0.2,0.5-0.3,0.7-0.3h20.1     c0.3,0,0.5,0.1,0.7,0.3c0.2,0.2,0.3,0.5,0.3,0.8l-2.2,27C34.9,38.5,34.4,38.9,33.9,38.9z M19.7,36.9H33l2-25H17L19.7,36.9z" style=""></path><path fill="currentColor" d="M34.4,33.2c-0.4,0-0.7-0.2-0.9-0.5c-0.3-0.5-0.1-1.1,0.4-1.3c7-3.6,8.9-8,9.3-11c0.2-1.8-0.6-3.5-2.1-4.2     c-0.7-0.3-1.4-0.4-2-0.1c-1.6,0.6-2.6,2.7-2.6,2.8c-0.2,0.5-0.8,0.7-1.3,0.5c-0.5-0.2-0.7-0.8-0.5-1.3c0.1-0.1,1.3-2.9,3.8-3.8     c1.2-0.4,2.4-0.4,3.6,0.2c2.3,1.1,3.6,3.6,3.3,6.3c-0.4,3.5-2.6,8.5-10.3,12.5C34.7,33.2,34.5,33.2,34.4,33.2z" style=""></path></g></g><path fill="currentColor" d="M42.3,47.5H5.8c-0.4,0-0.7-0.2-0.9-0.5l-2.5-4.3c-0.2-0.3-0.2-0.7,0-1c0.2-0.3,0.5-0.5,0.9-0.5h41.5   c0.4,0,0.7,0.2,0.9,0.5c0.2,0.3,0.2,0.7,0,1L43.1,47C42.9,47.3,42.6,47.5,42.3,47.5z M6.3,45.5h35.3l1.3-2.3H5L6.3,45.5z" style=""></path></g></svg>