<svg xmlns="http://www.w3.org/2000/svg" xmlns:xlink="http://www.w3.org/1999/xlink" version="1.1" x="0px" y="0px" viewBox="0 0 80 80" enable-background="new 0 0 80 80" xml:space="preserve" style="max-width:100%" height="100%"><g style="" fill="currentColor"><g style="" fill="currentColor"><path fill="currentColor" d="M62,66H18c-2.206,0-4-1.794-4-4V18c0-2.206,1.794-4,4-4h44c2.206,0,4,1.794,4,4v44    C66,64.206,64.206,66,62,66z M18,18v44h44.003L62,18H18z" style=""></path></g><g style="" fill="currentColor"><rect x="17" y="24" fill="currentColor" width="47" height="4" style=""></rect></g></g><g style="" fill="currentColor"><rect x="24" y="35" fill="currentColor" width="5" height="4" style=""></rect></g><g style="" fill="currentColor"><rect x="33" y="35" fill="currentColor" width="5" height="4" style=""></rect></g><g style="" fill="currentColor"><rect x="24" y="43" fill="currentColor" width="5" height="4" style=""></rect></g><g style="" fill="currentColor"><rect x="33" y="43" fill="currentColor" width="5" height="4" style=""></rect></g><g style="" fill="currentColor"><rect x="24" y="51" fill="currentColor" width="5" height="4" style=""></rect></g><g style="" fill="currentColor"><rect x="33" y="51" fill="currentColor" width="5" height="4" style=""></rect></g><g style="" fill="currentColor"><rect x="42" y="51" fill="currentColor" width="5" height="4" style=""></rect></g><g style="" fill="currentColor"><rect x="51" y="51" fill="currentColor" width="5" height="4" style=""></rect></g><g style="" fill="currentColor"><polygon fill="currentColor" points="45.9,46.829 40.586,41.514 43.414,38.686 45.9,41.171 53.586,33.486 56.414,36.314  " style=""></polygon></g></svg>