<svg width="80" height="80" viewBox="0 0 80 80" fill="none" xmlns="http://www.w3.org/2000/svg">
<path d="M62 66H18C15.794 66 14 64.206 14 62V18C14 15.794 15.794 14 18 14H62C64.206 14 66 15.794 66 18V62C66 64.206 64.206 66 62 66ZM18 18V62H62.003L62 18H18Z" fill="white"/>
<path d="M64 24H17V28H64V24Z" fill="white"/>
<path d="M29 35H24V39H29V35Z" fill="white"/>
<path d="M38 35H33V39H38V35Z" fill="white"/>
<path d="M29 43H24V47H29V43Z" fill="white"/>
<path d="M38 43H33V47H38V43Z" fill="white"/>
<path d="M29 51H24V55H29V51Z" fill="white"/>
<path d="M38 51H33V55H38V51Z" fill="white"/>
<path d="M47 51H42V55H47V51Z" fill="white"/>
<path d="M56 51H51V55H56V51Z" fill="white"/>
<path d="M45.8999 46.8293L40.5859 41.5143L43.4139 38.6863L45.8999 41.1713L53.5859 33.4863L56.4139 36.3143L45.8999 46.8293Z" fill="white"/>
</svg>
