<svg width="18" height="14" viewBox="0 0 18 14" fill="none" xmlns="http://www.w3.org/2000/svg">
<path d="M17.8319 2.4875C17.6803 1.1604 17.364 0.77358 17.1399 0.59352C16.784 0.31343 16.138 0.2134 15.2746 0.15338C13.8905 0.0600204 11.5375 0 9 0C6.4559 0 4.1095 0.0533504 2.72538 0.15338C1.86196 0.2134 1.21604 0.31343 0.860117 0.59352C0.636028 0.77358 0.326247 1.1604 0.168067 2.4875C-0.0560225 4.4014 -0.0560225 8.7628 0.168067 10.6767C0.326247 12.0038 0.636028 12.3906 0.860117 12.5707C1.21604 12.8507 1.86196 12.9508 2.72538 13.0108C4.1095 13.1042 6.4559 13.1642 9 13.1642C11.5441 13.1642 13.8905 13.1042 15.2746 13.0108C16.138 12.9508 16.784 12.8507 17.1399 12.5707C17.364 12.3973 17.6737 12.0038 17.8319 10.6767C18.056 8.7628 18.056 4.4014 17.8319 2.4875ZM6.825 9.443V3.7145L12.256 6.5754L6.825 9.443Z" fill="#C00407"/>
</svg>
