<svg width="30" height="30" viewBox="0 0 30 30" fill="none" xmlns="http://www.w3.org/2000/svg">
<path d="M4.6875 0H25.3125C27.9013 0 30 2.09867 30 4.6875V25.3125C30 27.9013 27.9013 30 25.3125 30H4.6875C2.09867 30 0 27.9013 0 25.3125V4.6875C0 2.09867 2.09867 0 4.6875 0ZM23.2799 10.7695C23.1378 9.52535 22.8412 9.16273 22.6311 8.99393C22.2975 8.73134 21.6919 8.63756 20.8825 8.5813C19.5849 8.49377 17.3789 8.4375 15 8.4375C12.6149 8.4375 10.4151 8.48752 9.11754 8.5813C8.30808 8.63756 7.70254 8.73134 7.36887 8.99393C7.15878 9.16273 6.86836 9.52535 6.72007 10.7695C6.50998 12.5638 6.50998 16.6526 6.72007 18.4469C6.86836 19.6911 7.15878 20.0537 7.36887 20.2225C7.70254 20.4851 8.30808 20.5789 9.11754 20.6351C10.4151 20.7227 12.6149 20.7789 15 20.7789C17.3851 20.7789 19.5849 20.7227 20.8825 20.6351C21.6919 20.5789 22.2975 20.4851 22.6311 20.2225C22.8412 20.0599 23.1316 19.6911 23.2799 18.4469C23.49 16.6526 23.49 12.5638 23.2799 10.7695ZM12.9609 17.2903V11.9199L18.0525 14.602L12.9609 17.2903Z" fill="#C00407"/>
<path d="M4.6875 0.9375C2.61643 0.9375 0.9375 2.61643 0.9375 4.6875V25.3125C0.9375 27.3836 2.61643 29.0625 4.6875 29.0625H25.3125C27.3836 29.0625 29.0625 27.3836 29.0625 25.3125V4.6875C29.0625 2.61643 27.3836 0.9375 25.3125 0.9375H4.6875ZM4.6875 0H25.3125C27.9013 0 30 2.09867 30 4.6875V25.3125C30 27.9013 27.9013 30 25.3125 30H4.6875C2.09867 30 0 27.9013 0 25.3125V4.6875C0 2.09867 2.09867 0 4.6875 0Z" fill="#C00407"/>
<path d="M23.2799 10.7695C23.1378 9.52535 22.8412 9.16273 22.6311 8.99393C22.2975 8.73134 21.6919 8.63756 20.8825 8.5813C19.5849 8.49377 17.3789 8.4375 15 8.4375C12.6149 8.4375 10.4151 8.48752 9.11754 8.5813C8.30808 8.63756 7.70254 8.73134 7.36887 8.99393C7.15878 9.16273 6.86836 9.52535 6.72007 10.7695C6.50998 12.5638 6.50998 16.6526 6.72007 18.4469C6.86836 19.6911 7.15878 20.0537 7.36887 20.2225C7.70254 20.4851 8.30808 20.5789 9.11754 20.6351C10.4151 20.7227 12.6149 20.7789 15 20.7789C17.3851 20.7789 19.5849 20.7227 20.8825 20.6351C21.6919 20.5789 22.2975 20.4851 22.6311 20.2225C22.8412 20.0599 23.1316 19.6911 23.2799 18.4469C23.49 16.6526 23.49 12.5638 23.2799 10.7695ZM12.9609 17.2903V11.9199L18.0525 14.602L12.9609 17.2903Z" fill="white"/>
</svg>
