<svg width="32" height="32" viewBox="0 0 32 32" fill="none" xmlns="http://www.w3.org/2000/svg">
<path d="M5 0H27C29.7614 0 32 2.23858 32 5V27C32 29.7614 29.7614 32 27 32H5C2.23858 32 0 29.7614 0 27V5C0 2.23858 2.23858 0 5 0ZM24.8319 11.4875C24.6803 10.1604 24.364 9.77358 24.1399 9.59352C23.784 9.31343 23.138 9.2134 22.2746 9.15338C20.8905 9.06002 18.5375 9 16 9C13.4559 9 11.1095 9.05335 9.72538 9.15338C8.86196 9.2134 8.21604 9.31343 7.86012 9.59352C7.63603 9.77358 7.32625 10.1604 7.16807 11.4875C6.94398 13.4014 6.94398 17.7628 7.16807 19.6767C7.32625 21.0038 7.63603 21.3906 7.86012 21.5707C8.21604 21.8507 8.86196 21.9508 9.72538 22.0108C11.1095 22.1042 13.4559 22.1642 16 22.1642C18.5441 22.1642 20.8905 22.1042 22.2746 22.0108C23.138 21.9508 23.784 21.8507 24.1399 21.5707C24.364 21.3973 24.6737 21.0038 24.8319 19.6767C25.056 17.7628 25.056 13.4014 24.8319 11.4875ZM13.825 18.443V12.7145L19.256 15.5754L13.825 18.443Z" fill="#C00407"/>
<path d="M5 1C2.79086 1 1 2.79086 1 5V27C1 29.2091 2.79086 31 5 31H27C29.2091 31 31 29.2091 31 27V5C31 2.79086 29.2091 1 27 1H5ZM5 0H27C29.7614 0 32 2.23858 32 5V27C32 29.7614 29.7614 32 27 32H5C2.23858 32 0 29.7614 0 27V5C0 2.23858 2.23858 0 5 0Z" fill="#C00407"/>
<path d="M24.8319 11.4875C24.6803 10.1604 24.364 9.77358 24.1399 9.59352C23.784 9.31343 23.138 9.2134 22.2746 9.15338C20.8905 9.06002 18.5375 9 16 9C13.4559 9 11.1095 9.05335 9.72538 9.15338C8.86196 9.2134 8.21604 9.31343 7.86012 9.59352C7.63603 9.77358 7.32625 10.1604 7.16807 11.4875C6.94398 13.4014 6.94398 17.7628 7.16807 19.6767C7.32625 21.0038 7.63603 21.3906 7.86012 21.5707C8.21604 21.8507 8.86196 21.9508 9.72538 22.0108C11.1095 22.1042 13.4559 22.1642 16 22.1642C18.5441 22.1642 20.8905 22.1042 22.2746 22.0108C23.138 21.9508 23.784 21.8507 24.1399 21.5707C24.364 21.3973 24.6737 21.0038 24.8319 19.6767C25.056 17.7628 25.056 13.4014 24.8319 11.4875ZM13.825 18.443V12.7145L19.256 15.5754L13.825 18.443Z" fill="white"/>
</svg>
